<svg xmlns="http://www.w3.org/2000/svg" xmlns:xlink="http://www.w3.org/1999/xlink" width="500" zoomAndPan="magnify" viewBox="0 0 375 374.999991" height="500" preserveAspectRatio="xMidYMid meet" version="1.0"><defs><g/><clipPath id="id1"><path d="M 146 163 L 245.566406 163 L 245.566406 262.496094 L 146 262.496094 Z M 146 163 " clip-rule="nonzero"/></clipPath><clipPath id="id2"><path d="M 69.316406 86.246094 L 219 86.246094 L 219 237 L 69.316406 237 Z M 69.316406 86.246094 " clip-rule="nonzero"/></clipPath></defs><rect x="-37.5" width="450" fill="#ffffff" y="-37.499999" height="449.999989" fill-opacity="1"/><rect x="-37.5" width="450" fill="#ffffff" y="-37.499999" height="449.999989" fill-opacity="1"/><rect x="-37.5" width="450" fill="#000000" y="-37.499999" height="449.999989" fill-opacity="1"/><g clip-path="url(#id1)"><path fill="#06327d" d="M 237.433594 262.496094 L 146.332031 171.394531 L 154.457031 163.269531 L 245.5625 254.371094 Z M 237.433594 262.496094 " fill-opacity="1" fill-rule="nonzero"/></g><g clip-path="url(#id2)"><path fill="#06327d" d="M 77.207031 94.140625 C 68.035156 103.3125 66.828125 119.003906 73.804688 138.324219 C 80.210938 156.074219 93.03125 175.699219 109.902344 193.582031 L 110.953125 194.695312 L 133.351562 201.457031 L 131.035156 213.261719 L 133.816406 215.433594 C 147.519531 226.148438 165.894531 233.28125 186.957031 236.066406 C 190.023438 236.472656 192.933594 236.757812 195.640625 236.957031 L 130.078125 171.394531 L 154.460938 147.011719 L 218.160156 210.710938 C 217.449219 206.21875 216.488281 201.183594 215.183594 195.792969 C 210.722656 177.382812 201.21875 151.257812 181.285156 131.324219 C 177.761719 127.796875 174.082031 124.363281 170.351562 121.109375 L 167.667969 118.773438 L 156.347656 123.453125 L 144.867188 102.261719 L 143.519531 101.453125 C 114.6875 84.183594 89.898438 81.449219 77.207031 94.140625 Z M 77.207031 94.140625 " fill-opacity="1" fill-rule="nonzero"/></g><g fill="#00c4cc" fill-opacity="1"><g transform="translate(42.991217, 190.674793)"><g><path d="M 32.765625 -4.046875 L 24.953125 -26.671875 L 24.75 -26.640625 L 22.6875 -2.796875 L 9.21875 -1.140625 L -4.4375 -38.171875 L 8.3125 -39.75 L 15.375 -18.6875 L 15.578125 -18.703125 L 17.234375 -40.859375 L 29.328125 -42.34375 L 36.59375 -21.296875 L 36.828125 -21.328125 L 38.25 -43.453125 L 50.453125 -44.953125 L 46.234375 -5.71875 Z M 32.765625 -4.046875 "/></g></g></g><g fill="#00c4cc" fill-opacity="1"><g transform="translate(98.442401, 183.826103)"><g><path d="M 37.046875 -31.4375 C 37.335938 -29.101562 36.96875 -26.914062 35.9375 -24.875 C 34.914062 -22.84375 33.257812 -21.226562 30.96875 -20.03125 L 41.421875 -5.109375 L 27.671875 -3.421875 L 19.1875 -16.5 L 14.640625 -15.9375 L 16.359375 -2.015625 L 4.109375 -0.5 L -0.609375 -38.640625 L 22.734375 -41.53125 C 25.472656 -41.863281 27.875 -41.625 29.9375 -40.8125 C 32.007812 -40 33.644531 -38.757812 34.84375 -37.09375 C 36.050781 -35.4375 36.785156 -33.550781 37.046875 -31.4375 Z M 24.625 -29.390625 C 24.5 -30.390625 24.0625 -31.179688 23.3125 -31.765625 C 22.5625 -32.347656 21.707031 -32.582031 20.75 -32.46875 L 12.71875 -31.46875 L 13.59375 -24.421875 L 21.625 -25.421875 C 22.582031 -25.535156 23.351562 -25.972656 23.9375 -26.734375 C 24.519531 -27.503906 24.75 -28.390625 24.625 -29.390625 Z M 24.625 -29.390625 "/></g></g></g><g fill="#00c4cc" fill-opacity="1"><g transform="translate(141.58342, 178.497822)"><g><path d="M 4.65625 -0.578125 L -0.0625 -38.71875 L 12.203125 -40.234375 L 16.921875 -2.09375 Z M 4.65625 -0.578125 "/></g></g></g><g fill="#00c4cc" fill-opacity="1"><g transform="translate(163.153935, 175.833681)"><g><path d="M 22.5625 -31.609375 L 26.0625 -3.21875 L 13.796875 -1.703125 L 10.296875 -30.09375 L -2.234375 -28.546875 L -3.453125 -38.296875 L 33.8125 -42.90625 L 35.03125 -33.15625 Z M 22.5625 -31.609375 "/></g></g></g><g fill="#00c4cc" fill-opacity="1"><g transform="translate(203.189681, 170.888927)"><g><path d="M -0.609375 -38.640625 L 32.375 -42.71875 L 33.515625 -33.578125 L 12.78125 -31.015625 L 13.421875 -25.75 L 31.15625 -27.953125 L 32.25 -19.203125 L 14.515625 -17 L 15.234375 -11.171875 L 36.359375 -13.78125 L 37.484375 -4.625 L 4.109375 -0.5 Z M -0.609375 -38.640625 "/></g></g></g><g fill="#00c4cc" fill-opacity="1"><g transform="translate(243.225427, 165.944174)"><g/></g></g><g fill="#00c4cc" fill-opacity="1"><g transform="translate(261.69067, 163.66356)"><g><path d="M 18.328125 -41.671875 C 22.097656 -42.128906 25.425781 -42.066406 28.3125 -41.484375 C 31.195312 -40.898438 33.476562 -39.90625 35.15625 -38.5 C 36.832031 -37.101562 37.789062 -35.441406 38.03125 -33.515625 L 38.1875 -32.140625 L 28.375 -30.9375 C 28.238281 -32.070312 27.445312 -32.9375 26 -33.53125 C 24.5625 -34.125 22.566406 -34.265625 20.015625 -33.953125 C 17.648438 -33.648438 15.898438 -32.96875 14.765625 -31.90625 C 13.640625 -30.851562 13.160156 -29.679688 13.328125 -28.390625 C 13.460938 -27.242188 13.945312 -26.421875 14.78125 -25.921875 C 15.613281 -25.421875 16.582031 -25.238281 17.6875 -25.375 L 23.453125 -26.09375 L 24.296875 -19.265625 L 17.3125 -18.390625 C 16.164062 -18.253906 15.273438 -17.800781 14.640625 -17.03125 C 14.003906 -16.257812 13.765625 -15.226562 13.921875 -13.9375 C 14.109375 -12.414062 14.894531 -11.300781 16.28125 -10.59375 C 17.664062 -9.882812 19.742188 -9.703125 22.515625 -10.046875 C 28.054688 -10.734375 30.625 -12.722656 30.21875 -16.015625 L 28.890625 -26.765625 L 46.40625 -28.921875 L 47.25 -22.09375 L 39.671875 -21.15625 L 40.140625 -17.453125 C 40.648438 -13.304688 39.570312 -9.921875 36.90625 -7.296875 C 34.238281 -4.679688 29.785156 -2.988281 23.546875 -2.21875 C 17.097656 -1.425781 12.140625 -1.867188 8.671875 -3.546875 C 5.203125 -5.222656 3.257812 -7.765625 2.84375 -11.171875 C 2.570312 -13.378906 2.914062 -15.359375 3.875 -17.109375 C 4.832031 -18.859375 6.328125 -20.195312 8.359375 -21.125 L 8.34375 -21.34375 C 6.6875 -21.75 5.238281 -22.609375 4 -23.921875 C 2.769531 -25.234375 2.039062 -26.773438 1.8125 -28.546875 C 1.570312 -30.546875 2.019531 -32.460938 3.15625 -34.296875 C 4.300781 -36.128906 6.164062 -37.695312 8.75 -39 C 11.332031 -40.3125 14.523438 -41.203125 18.328125 -41.671875 Z M 18.328125 -41.671875 "/></g></g></g><g fill="#ffffff" fill-opacity="1"><g transform="translate(44.233635, 189.770778)"><g><path d="M 32.765625 -4.046875 L 24.953125 -26.671875 L 24.75 -26.640625 L 22.6875 -2.796875 L 9.21875 -1.140625 L -4.4375 -38.171875 L 8.3125 -39.75 L 15.375 -18.6875 L 15.578125 -18.703125 L 17.234375 -40.859375 L 29.328125 -42.34375 L 36.59375 -21.296875 L 36.828125 -21.328125 L 38.25 -43.453125 L 50.453125 -44.953125 L 46.234375 -5.71875 Z M 32.765625 -4.046875 "/></g></g></g><g fill="#ffffff" fill-opacity="1"><g transform="translate(99.684819, 182.922088)"><g><path d="M 37.046875 -31.4375 C 37.335938 -29.101562 36.96875 -26.914062 35.9375 -24.875 C 34.914062 -22.84375 33.257812 -21.226562 30.96875 -20.03125 L 41.421875 -5.109375 L 27.671875 -3.421875 L 19.1875 -16.5 L 14.640625 -15.9375 L 16.359375 -2.015625 L 4.109375 -0.5 L -0.609375 -38.640625 L 22.734375 -41.53125 C 25.472656 -41.863281 27.875 -41.625 29.9375 -40.8125 C 32.007812 -40 33.644531 -38.757812 34.84375 -37.09375 C 36.050781 -35.4375 36.785156 -33.550781 37.046875 -31.4375 Z M 24.625 -29.390625 C 24.5 -30.390625 24.0625 -31.179688 23.3125 -31.765625 C 22.5625 -32.347656 21.707031 -32.582031 20.75 -32.46875 L 12.71875 -31.46875 L 13.59375 -24.421875 L 21.625 -25.421875 C 22.582031 -25.535156 23.351562 -25.972656 23.9375 -26.734375 C 24.519531 -27.503906 24.75 -28.390625 24.625 -29.390625 Z M 24.625 -29.390625 "/></g></g></g><g fill="#ffffff" fill-opacity="1"><g transform="translate(142.825838, 177.593807)"><g><path d="M 4.65625 -0.578125 L -0.0625 -38.71875 L 12.203125 -40.234375 L 16.921875 -2.09375 Z M 4.65625 -0.578125 "/></g></g></g><g fill="#ffffff" fill-opacity="1"><g transform="translate(164.396353, 174.929666)"><g><path d="M 22.5625 -31.609375 L 26.0625 -3.21875 L 13.796875 -1.703125 L 10.296875 -30.09375 L -2.234375 -28.546875 L -3.453125 -38.296875 L 33.8125 -42.90625 L 35.03125 -33.15625 Z M 22.5625 -31.609375 "/></g></g></g><g fill="#ffffff" fill-opacity="1"><g transform="translate(204.432099, 169.984912)"><g><path d="M -0.609375 -38.640625 L 32.375 -42.71875 L 33.515625 -33.578125 L 12.78125 -31.015625 L 13.421875 -25.75 L 31.15625 -27.953125 L 32.25 -19.203125 L 14.515625 -17 L 15.234375 -11.171875 L 36.359375 -13.78125 L 37.484375 -4.625 L 4.109375 -0.5 Z M -0.609375 -38.640625 "/></g></g></g><g fill="#ffffff" fill-opacity="1"><g transform="translate(244.467845, 165.040159)"><g/></g></g><g fill="#ffffff" fill-opacity="1"><g transform="translate(262.933088, 162.759545)"><g><path d="M 18.328125 -41.671875 C 22.097656 -42.128906 25.425781 -42.066406 28.3125 -41.484375 C 31.195312 -40.898438 33.476562 -39.90625 35.15625 -38.5 C 36.832031 -37.101562 37.789062 -35.441406 38.03125 -33.515625 L 38.1875 -32.140625 L 28.375 -30.9375 C 28.238281 -32.070312 27.445312 -32.9375 26 -33.53125 C 24.5625 -34.125 22.566406 -34.265625 20.015625 -33.953125 C 17.648438 -33.648438 15.898438 -32.96875 14.765625 -31.90625 C 13.640625 -30.851562 13.160156 -29.679688 13.328125 -28.390625 C 13.460938 -27.242188 13.945312 -26.421875 14.78125 -25.921875 C 15.613281 -25.421875 16.582031 -25.238281 17.6875 -25.375 L 23.453125 -26.09375 L 24.296875 -19.265625 L 17.3125 -18.390625 C 16.164062 -18.253906 15.273438 -17.800781 14.640625 -17.03125 C 14.003906 -16.257812 13.765625 -15.226562 13.921875 -13.9375 C 14.109375 -12.414062 14.894531 -11.300781 16.28125 -10.59375 C 17.664062 -9.882812 19.742188 -9.703125 22.515625 -10.046875 C 28.054688 -10.734375 30.625 -12.722656 30.21875 -16.015625 L 28.890625 -26.765625 L 46.40625 -28.921875 L 47.25 -22.09375 L 39.671875 -21.15625 L 40.140625 -17.453125 C 40.648438 -13.304688 39.570312 -9.921875 36.90625 -7.296875 C 34.238281 -4.679688 29.785156 -2.988281 23.546875 -2.21875 C 17.097656 -1.425781 12.140625 -1.867188 8.671875 -3.546875 C 5.203125 -5.222656 3.257812 -7.765625 2.84375 -11.171875 C 2.570312 -13.378906 2.914062 -15.359375 3.875 -17.109375 C 4.832031 -18.859375 6.328125 -20.195312 8.359375 -21.125 L 8.34375 -21.34375 C 6.6875 -21.75 5.238281 -22.609375 4 -23.921875 C 2.769531 -25.234375 2.039062 -26.773438 1.8125 -28.546875 C 1.570312 -30.546875 2.019531 -32.460938 3.15625 -34.296875 C 4.300781 -36.128906 6.164062 -37.695312 8.75 -39 C 11.332031 -40.3125 14.523438 -41.203125 18.328125 -41.671875 Z M 18.328125 -41.671875 "/></g></g></g><g fill="#ff914d" fill-opacity="1"><g transform="translate(79.700222, 250.73645)"><g><path d="M 41.046875 -5.0625 L 31.265625 -33.421875 L 31 -33.375 L 28.40625 -3.515625 L 11.53125 -1.421875 L -5.5625 -47.84375 L 10.421875 -49.8125 L 19.234375 -23.390625 L 19.515625 -23.4375 L 21.609375 -51.1875 L 36.734375 -53.0625 L 45.84375 -26.6875 L 46.125 -26.71875 L 47.921875 -54.4375 L 63.203125 -56.328125 L 57.921875 -7.15625 Z M 41.046875 -5.0625 "/></g></g></g><g fill="#ff914d" fill-opacity="1"><g transform="translate(149.150101, 242.158802)"><g><path d="M 22.890625 -52.171875 C 31.140625 -53.191406 37.765625 -51.875 42.765625 -48.21875 C 47.773438 -44.5625 50.773438 -38.707031 51.765625 -30.65625 C 52.765625 -22.59375 51.28125 -16.175781 47.3125 -11.40625 C 43.351562 -6.632812 37.25 -3.738281 29 -2.71875 C 20.757812 -1.707031 14.144531 -3.019531 9.15625 -6.65625 C 4.164062 -10.300781 1.171875 -16.175781 0.171875 -24.28125 C -0.828125 -32.382812 0.644531 -38.804688 4.59375 -43.546875 C 8.550781 -48.285156 14.648438 -51.160156 22.890625 -52.171875 Z M 24.296875 -40.71875 C 21.003906 -40.3125 18.628906 -39.007812 17.171875 -36.8125 C 15.710938 -34.613281 15.191406 -31.820312 15.609375 -28.4375 L 16.15625 -23.984375 C 16.570312 -20.609375 17.753906 -18.03125 19.703125 -16.25 C 21.660156 -14.46875 24.285156 -13.78125 27.578125 -14.1875 C 30.867188 -14.59375 33.257812 -15.898438 34.75 -18.109375 C 36.238281 -20.316406 36.773438 -23.109375 36.359375 -26.484375 L 35.8125 -30.9375 C 35.394531 -34.320312 34.191406 -36.898438 32.203125 -38.671875 C 30.222656 -40.441406 27.585938 -41.125 24.296875 -40.71875 Z M 24.296875 -40.71875 "/></g></g></g><g fill="#ff914d" fill-opacity="1"><g transform="translate(207.001847, 235.013622)"><g><path d="M 22.890625 -52.171875 C 31.140625 -53.191406 37.765625 -51.875 42.765625 -48.21875 C 47.773438 -44.5625 50.773438 -38.707031 51.765625 -30.65625 C 52.765625 -22.59375 51.28125 -16.175781 47.3125 -11.40625 C 43.351562 -6.632812 37.25 -3.738281 29 -2.71875 C 20.757812 -1.707031 14.144531 -3.019531 9.15625 -6.65625 C 4.164062 -10.300781 1.171875 -16.175781 0.171875 -24.28125 C -0.828125 -32.382812 0.644531 -38.804688 4.59375 -43.546875 C 8.550781 -48.285156 14.648438 -51.160156 22.890625 -52.171875 Z M 24.296875 -40.71875 C 21.003906 -40.3125 18.628906 -39.007812 17.171875 -36.8125 C 15.710938 -34.613281 15.191406 -31.820312 15.609375 -28.4375 L 16.15625 -23.984375 C 16.570312 -20.609375 17.753906 -18.03125 19.703125 -16.25 C 21.660156 -14.46875 24.285156 -13.78125 27.578125 -14.1875 C 30.867188 -14.59375 33.257812 -15.898438 34.75 -18.109375 C 36.238281 -20.316406 36.773438 -23.109375 36.359375 -26.484375 L 35.8125 -30.9375 C 35.394531 -34.320312 34.191406 -36.898438 32.203125 -38.671875 C 30.222656 -40.441406 27.585938 -41.125 24.296875 -40.71875 Z M 24.296875 -40.71875 "/></g></g></g><g fill="#ff914d" fill-opacity="1"><g transform="translate(264.853593, 227.868442)"><g><path d="M 19.921875 -50.984375 C 36.640625 -53.046875 45.984375 -46.109375 47.953125 -30.171875 C 49.921875 -14.242188 42.546875 -5.25 25.828125 -3.1875 L 5.125 -0.640625 L -0.78125 -48.4375 Z M 19.0625 -13.984375 L 24.140625 -14.609375 C 30.578125 -15.398438 33.375 -19.242188 32.53125 -26.140625 L 32.015625 -30.3125 C 31.160156 -37.21875 27.515625 -40.273438 21.078125 -39.484375 L 16 -38.859375 Z M 19.0625 -13.984375 "/></g></g></g><g fill="#209d5c" fill-opacity="1"><g transform="translate(81.256454, 249.604082)"><g><path d="M 41.046875 -5.0625 L 31.265625 -33.421875 L 31 -33.375 L 28.40625 -3.515625 L 11.53125 -1.421875 L -5.5625 -47.84375 L 10.421875 -49.8125 L 19.234375 -23.390625 L 19.515625 -23.4375 L 21.609375 -51.1875 L 36.734375 -53.0625 L 45.84375 -26.6875 L 46.125 -26.71875 L 47.921875 -54.4375 L 63.203125 -56.328125 L 57.921875 -7.15625 Z M 41.046875 -5.0625 "/></g></g></g><g fill="#209d5c" fill-opacity="1"><g transform="translate(150.706333, 241.026434)"><g><path d="M 22.890625 -52.171875 C 31.140625 -53.191406 37.765625 -51.875 42.765625 -48.21875 C 47.773438 -44.5625 50.773438 -38.707031 51.765625 -30.65625 C 52.765625 -22.59375 51.28125 -16.175781 47.3125 -11.40625 C 43.351562 -6.632812 37.25 -3.738281 29 -2.71875 C 20.757812 -1.707031 14.144531 -3.019531 9.15625 -6.65625 C 4.164062 -10.300781 1.171875 -16.175781 0.171875 -24.28125 C -0.828125 -32.382812 0.644531 -38.804688 4.59375 -43.546875 C 8.550781 -48.285156 14.648438 -51.160156 22.890625 -52.171875 Z M 24.296875 -40.71875 C 21.003906 -40.3125 18.628906 -39.007812 17.171875 -36.8125 C 15.710938 -34.613281 15.191406 -31.820312 15.609375 -28.4375 L 16.15625 -23.984375 C 16.570312 -20.609375 17.753906 -18.03125 19.703125 -16.25 C 21.660156 -14.46875 24.285156 -13.78125 27.578125 -14.1875 C 30.867188 -14.59375 33.257812 -15.898438 34.75 -18.109375 C 36.238281 -20.316406 36.773438 -23.109375 36.359375 -26.484375 L 35.8125 -30.9375 C 35.394531 -34.320312 34.191406 -36.898438 32.203125 -38.671875 C 30.222656 -40.441406 27.585938 -41.125 24.296875 -40.71875 Z M 24.296875 -40.71875 "/></g></g></g><g fill="#209d5c" fill-opacity="1"><g transform="translate(208.558079, 233.881254)"><g><path d="M 22.890625 -52.171875 C 31.140625 -53.191406 37.765625 -51.875 42.765625 -48.21875 C 47.773438 -44.5625 50.773438 -38.707031 51.765625 -30.65625 C 52.765625 -22.59375 51.28125 -16.175781 47.3125 -11.40625 C 43.351562 -6.632812 37.25 -3.738281 29 -2.71875 C 20.757812 -1.707031 14.144531 -3.019531 9.15625 -6.65625 C 4.164062 -10.300781 1.171875 -16.175781 0.171875 -24.28125 C -0.828125 -32.382812 0.644531 -38.804688 4.59375 -43.546875 C 8.550781 -48.285156 14.648438 -51.160156 22.890625 -52.171875 Z M 24.296875 -40.71875 C 21.003906 -40.3125 18.628906 -39.007812 17.171875 -36.8125 C 15.710938 -34.613281 15.191406 -31.820312 15.609375 -28.4375 L 16.15625 -23.984375 C 16.570312 -20.609375 17.753906 -18.03125 19.703125 -16.25 C 21.660156 -14.46875 24.285156 -13.78125 27.578125 -14.1875 C 30.867188 -14.59375 33.257812 -15.898438 34.75 -18.109375 C 36.238281 -20.316406 36.773438 -23.109375 36.359375 -26.484375 L 35.8125 -30.9375 C 35.394531 -34.320312 34.191406 -36.898438 32.203125 -38.671875 C 30.222656 -40.441406 27.585938 -41.125 24.296875 -40.71875 Z M 24.296875 -40.71875 "/></g></g></g><g fill="#209d5c" fill-opacity="1"><g transform="translate(266.409825, 226.736074)"><g><path d="M 19.921875 -50.984375 C 36.640625 -53.046875 45.984375 -46.109375 47.953125 -30.171875 C 49.921875 -14.242188 42.546875 -5.25 25.828125 -3.1875 L 5.125 -0.640625 L -0.78125 -48.4375 Z M 19.0625 -13.984375 L 24.140625 -14.609375 C 30.578125 -15.398438 33.375 -19.242188 32.53125 -26.140625 L 32.015625 -30.3125 C 31.160156 -37.21875 27.515625 -40.273438 21.078125 -39.484375 L 16 -38.859375 Z M 19.0625 -13.984375 "/></g></g></g></svg>